<svg id="Ebene_1" data-name="Ebene 1" xmlns="http://www.w3.org/2000/svg" viewBox="0 0 1080 1080"><defs><style>.cls-1{fill:#ebebeb;}</style></defs><title>keyholi-01</title><rect x="-15" y="-20" width="1119" height="1114"/><path class="cls-1" d="M702,396c0-89.33-72.68-162-162-162S378,306.67,378,396a161.61,161.61,0,0,0,63.41,128.48L393.26,864H686.74L638.59,524.48A161.61,161.61,0,0,0,702,396ZM645.26,828H434.74L480.2,507.42l-9.5-6.28a126,126,0,1,1,138.62,0l-9.51,6.28Z"/><path class="cls-1" d="M540,0C242.24,0,0,242.24,0,540s242.24,540,540,540,540-242.24,540-540S837.76,0,540,0Zm0,1044C262.1,1044,36,817.9,36,540S262.1,36,540,36s504,226.1,504,504S817.9,1044,540,1044Z"/></svg>